<?xml version="1.0" encoding="UTF-8" standalone="no"?>
<svg
   xmlns:dc="http://purl.org/dc/elements/1.1/"
   xmlns:cc="http://creativecommons.org/ns#"
   xmlns:rdf="http://www.w3.org/1999/02/22-rdf-syntax-ns#"
   xmlns:svg="http://www.w3.org/2000/svg"
   xmlns="http://www.w3.org/2000/svg"
   width="210mm"
   height="297mm"
   viewBox="0 0 210 297"
   version="1.1"
   id="svg150">
  <defs
     id="defs144" />
  <metadata
     id="metadata147">
    <rdf:RDF>
      <cc:Work
         rdf:about="">
        <dc:format>image/svg+xml</dc:format>
        <dc:type
           rdf:resource="http://purl.org/dc/dcmitype/StillImage" />
        <dc:title></dc:title>
      </cc:Work>
    </rdf:RDF>
  </metadata>
  <g
     id="layer1"
     style="opacity:1;">
    <path
       d="m 101.44123,241.88267 h 56.41778 v 4.73743 c 0,2.60556 -2.34055,4.73743 -5.20211,4.73743 h -46.01386 c -2.86095,0 -5.20181,-2.13187 -5.20181,-4.73743 z m 0,-14.21229 h 56.41778 v 9.47487 h -56.41778 z m 10.46435,28.42458 h 35.48909 v 4.73742 c 0,2.60556 -2.34086,4.73744 -5.20211,4.73744 h -25.08488 c -2.86125,0 -5.2021,-2.13188 -5.2021,-4.73744 z"
       style="fill:#2f353b;fill-opacity:1;fill-rule:evenodd;stroke:none;stroke-width:0.307691"
       id="path32" />
    <path
       d="m 163.61294,215.34393 v 0 h 0.11151 c 7.03012,-37.33333 37.60994,-39.54071 37.60994,-85.48267 0,-40.95329 -32.02374,-74.151317 -71.52908,-74.151317 -22.00303,0 -41.682418,10.301917 -54.801908,26.503848 H 36.537324 c -0.799626,-2.198603 -2.847649,-3.7625 -5.248341,-3.7625 -3.096965,0 -5.607357,2.602423 -5.607357,5.812922 0,3.210812 2.510392,5.813233 5.607357,5.813233 2.400692,0 4.448715,-1.563897 5.248341,-3.762498 h 35.372739 30.077557 c 1.08823,0 1.97821,0.922924 1.97821,2.050419 v 2.35e-4 c 0,1.12781 -0.88998,2.05042 -1.97821,2.05042 H 69.231043 c -1.162874,1.915397 -2.243247,3.889692 -3.236583,5.91787 h -9.983847 c -0.799627,-2.198917 -2.847649,-3.762814 -5.248342,-3.762814 -3.096963,0 -5.607354,2.602737 -5.607354,5.813236 0,3.210816 2.510391,5.813236 5.607354,5.813236 2.400693,0 4.448715,-1.5639 5.248342,-3.7625 h 8.124699 72.153438 c 1.08823,0 1.97821,0.92261 1.97821,2.05042 0,1.12812 -0.88998,2.05073 -1.97821,2.05073 H 62.559026 c -0.678744,1.93608 -1.281034,3.91006 -1.804447,5.91756 h -9.992308 c -0.518274,0 -0.990013,0.20708 -1.342985,0.54542 L 33.089502,124.57394 H 13.666079 c -0.799626,-2.1986 -2.847649,-3.7625 -5.248341,-3.7625 -3.0969656,8e-5 -5.6076595,2.60282 -5.6076595,5.81331 0,3.2105 2.5106939,5.81292 5.6076595,5.81292 2.400692,0 4.448715,-1.56358 5.248341,-3.7625 H 33.77671 c 0.518578,0 0.990317,-0.20676 1.342986,-0.5451 l 16.329783,-13.57508 h 8.35649 65.495621 c 1.08792,0 1.97791,0.92293 1.97791,2.05074 v 0 c 0,1.12781 -0.88999,2.05073 -1.97791,2.05073 H 59.089145 c -0.534292,3.65411 -0.812319,7.3953 -0.812319,11.20416 0,2.98902 0.171047,5.93699 0.503166,8.83358 H 45.810393 c -0.799627,-2.19892 -2.847649,-3.76282 -5.248342,-3.76282 -3.096965,0 -5.607356,2.60274 -5.607356,5.81324 0,3.2105 2.510391,5.81323 5.607356,5.81323 2.400693,0 4.448715,-1.56389 5.248342,-3.7625 h 13.552245 43.861292 c 1.08792,0 1.97791,0.92261 1.97791,2.05042 v 2.4e-4 c 0,1.12781 -0.88999,2.05042 -1.97791,2.05042 H 60.174957 c 1.268038,5.59018 3.145618,10.93694 5.55719,15.95977 0.0964,-0.015 0.195224,-0.0232 0.295857,-0.0232 h 52.208406 c 1.08793,0 1.97791,0.92261 1.97791,2.05074 0,1.12781 -0.88998,2.05041 -1.97791,2.05041 H 67.845749 64.024706 L 47.694621,153.3594 c -0.352971,-0.33834 -0.82471,-0.54511 -1.342683,-0.54511 H 26.241002 c -0.799625,-2.19892 -2.847648,-3.76281 -5.24834,-3.76281 -3.096965,0 -5.607357,2.60273 -5.607357,5.81323 0,3.21051 2.510392,5.81323 5.607357,5.81323 2.400692,0 4.448715,-1.56389 5.24834,-3.76249 H 45.66473 l 16.329785,13.57476 c 0.352971,0.33834 0.824707,0.54511 1.342985,0.54511 h 6.971798 c 1.024767,1.58801 2.106651,3.13248 3.243231,4.63029 v 0.0201 l 0.04805,0.0432 c 0.317616,0.4176 0.630998,0.82487 0.941361,1.2243 h 74.32173 c 1.08823,0 1.97821,0.92261 1.97821,2.05042 0,1.12813 -0.88998,2.05074 -1.97791,2.05074 h -2.2e-4 -71.035894 -19.919642 c -0.799928,-2.19861 -2.847951,-3.7625 -5.248342,-3.7625 -3.096965,0 -5.607658,2.60242 -5.607658,5.81292 0,3.21081 2.510693,5.81323 5.607658,5.81323 2.400391,0 4.448414,-1.56389 5.248342,-3.7625 H 81.25422 c 1.726479,2.05826 3.29944,3.95987 4.73611,5.91756 h 22.53218 c 1.08793,0 1.97791,0.92292 1.97791,2.05073 v 0 c 0,1.12781 -0.88998,2.05074 -1.97791,2.05074 H 88.714601 36.007566 c -0.799627,-2.19861 -2.847649,-3.7625 -5.248342,-3.7625 -3.096966,0 -5.607659,2.60242 -5.607659,5.81292 0,3.21082 2.510693,5.81323 5.607659,5.81323 2.400693,0 4.448715,-1.56389 5.248342,-3.7625 h 54.847836 c 1.872142,4.10116 3.423046,9.12274 4.732182,16.06816 h 0.09973 c 0,3.28068 2.589268,5.96487 5.753926,5.96487 h 56.41777 c 3.16466,0 5.75393,-2.68419 5.75393,-5.96487"
       style="fill:#d26ab7;fill-opacity:1;fill-rule:evenodd;stroke:none;stroke-width:0.307691"
       id="path36" />
    <path
       d="m 163.61294,215.34393 v 0 h 0.11151 c 7.03012,-37.33333 37.60994,-39.54071 37.60994,-85.48267 0,-19.14145 -6.9993,-36.58522 -18.486,-49.73893 7.41604,22.48446 -6.38583,42.08737 -23.11059,56.56186 -1.42548,13.74988 -5.37617,27.70434 -13.48092,40.26908 h 2.60679 c 1.08823,0 1.97821,0.92261 1.97821,2.05042 0,1.12812 -0.88998,2.05074 -1.97791,2.05074 h -2.2e-4 -5.42332 c -7.30724,9.90091 -17.44884,18.77678 -31.28031,25.78456 -5.78264,2.92979 -11.31868,5.65627 -16.629279,8.20607 l 0.05679,0.29887 h 0.09972 c 0,3.28067 2.589268,5.96486 5.753929,5.96486 h 56.41777 c 3.16466,0 5.75393,-2.68419 5.75393,-5.96486"
       style="fill:#702373;fill-opacity:1;fill-rule:evenodd;stroke:none;stroke-width:0.307691"
       id="path48" />
    <path
       d="m 163.61294,215.34393 v 0 h 0.11151 c 7.03012,-37.33333 37.60994,-39.54071 37.60994,-85.48267 0,-7.99304 -1.2215,-15.68972 -3.47925,-22.90207 -8.41421,63.08468 -39.59299,102.30207 -102.267556,108.38474 h 0.09973 c 0,3.28067 2.589268,5.96486 5.753926,5.96486 h 56.41777 c 3.16466,0 5.75393,-2.68419 5.75393,-5.96486"
       style="fill:#621b6b;fill-opacity:1;fill-rule:evenodd;stroke:none;stroke-width:0.307691"
       id="path52" />
    <path
       d="m 163.72445,215.34389 v 0 h 0.11151 c 7.03013,-37.33334 37.60994,-39.54071 37.60994,-85.48267 0,-19.14551 -7.00021,-36.594928 -18.49023,-49.750832 15.80758,47.881172 -64.60775,82.722672 -64.60775,82.722672 1.08793,0 1.97791,0.92261 1.97791,2.05073 0,1.12781 -0.88998,2.05042 -1.97791,2.05042 H 67.957256 64.136216 L 47.806132,153.35945 c -0.352976,-0.33834 -0.824708,-0.5451 -1.34269,-0.5451 H 26.352509 c -0.799626,-2.19892 -2.847645,-3.76282 -5.248339,-3.76282 -3.096969,0 -5.607356,2.60274 -5.607356,5.81324 0,3.21049 2.510387,5.81323 5.607356,5.81323 2.400694,0 4.448713,-1.5639 5.248339,-3.7625 H 45.77624 l 16.329785,13.57476 c 0.352968,0.33834 0.824708,0.54511 1.342981,0.54511 h 6.971796 c 1.024776,1.58802 2.106655,3.13249 3.243239,4.63028 v 0.0201 l 0.04806,0.0433 c 0.317615,0.41761 0.630998,0.82487 0.941357,1.2243 h 74.321732 c 1.08823,0 1.97821,0.92261 1.97821,2.05042 0,1.12812 -0.88998,2.05074 -1.9779,2.05074 h -2.4e-4 -71.035889 -19.919635 c -0.799926,-2.1986 -2.847953,-3.7625 -5.248339,-3.7625 -3.096969,0 -5.607664,2.60242 -5.607664,5.81292 0,3.21081 2.510695,5.81323 5.607664,5.81323 2.400386,0 4.448413,-1.56389 5.248339,-3.76249 h 23.346006 c 1.72648,2.05825 3.299443,3.95986 4.736106,5.91755 h 22.532182 c 1.08793,0 1.97791,0.92292 1.97791,2.05073 v 0 c 0,1.12781 -0.88998,2.05074 -1.97791,2.05074 H 88.82612 36.119078 c -0.799626,-2.1986 -2.847645,-3.7625 -5.24834,-3.7625 -3.096968,0 -5.607655,2.60242 -5.607655,5.81292 0,3.21081 2.510687,5.81324 5.607655,5.81324 2.400695,0 4.448714,-1.5639 5.24834,-3.7625 H 90.96692 c 1.872143,4.10115 3.423038,9.12272 4.732183,16.06816 h 0.09972 c 0,3.28067 2.589266,5.96486 5.753937,5.96486 h 56.41777 c 3.16466,0 5.75392,-2.68419 5.75392,-5.96486 M 65.66143,162.47372 c 0.06048,0.12782 0.12118,0.25501 0.182223,0.38251 0.09641,-0.015 0.195228,-0.0232 0.295857,-0.0232 0,0 -0.172861,-0.12938 -0.47808,-0.35933"
       style="fill:#982e8a;fill-opacity:1;fill-rule:evenodd;stroke:none;stroke-width:0.307691"
       id="path40" />
    <path
       d="m 163.61295,215.34393 v 0 h 0.1115 c 7.03013,-37.33333 37.60994,-39.54071 37.60994,-85.48267 0,-35.396325 -23.92472,-64.994757 -55.92398,-72.376274 l 2.34992,3.498716 c 0,0 29.38612,68.079308 -1.50345,115.969568 h 2.60679 c 1.08824,0 1.97822,0.92261 1.97822,2.05042 0,1.12812 -0.88998,2.05074 -1.97791,2.05074 h -2.3e-4 -5.42332 c -7.30731,9.90091 -17.44891,18.77678 -31.28039,25.78456 -5.78263,2.9298 -11.31867,5.65627 -16.629266,8.20607 l 0.05679,0.29887 h 0.09973 c 0,3.28067 2.589267,5.96486 5.753926,5.96486 H 157.859 c 3.16466,0 5.75393,-2.68419 5.75393,-5.96486"
       style="fill:#ad4ba2;fill-opacity:1;fill-rule:evenodd;stroke:none;stroke-width:0.307691"
       id="path44" />
    <path
       d="m 163.61294,215.34393 v 0 h 0.11151 c 7.03012,-37.33333 37.60993,-39.5407 37.60993,-85.48267 0,-19.14144 -6.99929,-36.585219 -18.48599,-49.73893 7.41603,22.48446 -6.38583,42.08737 -23.11059,56.56186 -1.42549,13.74989 -5.37617,27.70435 -13.48093,40.26908 h 2.60679 c 1.08824,0 1.97822,0.92261 1.97822,2.05043 0,1.12812 -0.88998,2.05073 -1.97791,2.05073 h -2.3e-4 -5.42332 c -7.30731,9.90091 -17.44891,18.77678 -31.28039,25.78456 -5.78263,2.9298 -11.31867,5.65627 -16.629265,8.20607 l 0.05679,0.29887 h 0.09973 c 0,3.28067 2.589266,5.96486 5.753925,5.96486 h 56.41778 c 3.16466,0 5.75393,-2.68419 5.75393,-5.96486"
       style="fill:#702373;fill-opacity:1;fill-rule:evenodd;stroke:none;stroke-width:0.307691"
       id="path48-4" />
    <path
       d="m 163.83596,215.34389 v 0 h 0.11151 c 7.03012,-37.33333 37.60995,-39.54071 37.60995,-85.48267 0,-7.99304 -1.22151,-15.68972 -3.47926,-22.90206 -8.4142,63.08468 -39.59299,102.30207 -102.267549,108.38473 h 0.09972 c 0,3.28068 2.589266,5.96486 5.753929,5.96486 h 56.41778 c 3.16466,0 5.75392,-2.68418 5.75392,-5.96486"
       style="fill:#621b6b;fill-opacity:1;fill-rule:evenodd;stroke:none;stroke-width:0.307691"
       id="path52-9" />
  </g>
</svg>
